<svg id="global_bulk" data-name="global/bulk" xmlns="http://www.w3.org/2000/svg" width="24" height="24" viewBox="0 0 24 24">
  <g id="vuesax_bulk_global" data-name="vuesax/bulk/global">
    <g id="global">
      <path id="Vector" d="M4.59,4.57c-.03,0-.07.02-.1.02A10.006,10.006,0,0,1,0,.1C0,.07.02.03.02,0A31.893,31.893,0,0,0,3.75.84,33.548,33.548,0,0,0,4.59,4.57Z" transform="translate(3.06 16.34)" fill="#094e81" opacity="0.4"/>
      <path id="Vector-2" data-name="Vector" d="M4.65.11A10.093,10.093,0,0,1,0,4.68,30.563,30.563,0,0,0,.91.84,31.281,31.281,0,0,0,4.63,0C4.62.04,4.65.08,4.65.11Z" transform="translate(16.29 16.34)" fill="#094e81" opacity="0.4"/>
      <path id="Vector-3" data-name="Vector" d="M4.73,4.73A31.643,31.643,0,0,0,.91,3.82,27.914,27.914,0,0,0,0,0,10.052,10.052,0,0,1,4.73,4.73Z" transform="translate(16.29 2.98)" fill="#094e81" opacity="0.4"/>
      <path id="Vector-4" data-name="Vector" d="M4.67.03a31.248,31.248,0,0,0-.83,3.72A28.87,28.87,0,0,0,0,4.65,10.093,10.093,0,0,1,4.57,0C4.6,0,4.64.03,4.67.03Z" transform="translate(2.98 3.06)" fill="#094e81" opacity="0.4"/>
      <path id="Vector-5" data-name="Vector" d="M6.98,4.59A31.328,31.328,0,0,0,0,4.59,28.373,28.373,0,0,1,1.02.53,1.635,1.635,0,0,0,1.04.31,10.406,10.406,0,0,1,3.49,0,10.322,10.322,0,0,1,5.93.31a1.66,1.66,0,0,0,.03.22A28.712,28.712,0,0,1,6.98,4.59Z" transform="translate(8.51 2)" fill="#094e81"/>
      <path id="Vector-6" data-name="Vector" d="M4.59,6.98A28.043,28.043,0,0,1,.53,5.96a1.635,1.635,0,0,0-.22-.02A10.406,10.406,0,0,1,0,3.49,10.322,10.322,0,0,1,.31,1.05a1.66,1.66,0,0,0,.22-.03A29.77,29.77,0,0,1,4.59,0,32.574,32.574,0,0,0,4.59,6.98Z" transform="translate(2 8.51)" fill="#094e81"/>
      <path id="Vector-7" data-name="Vector" d="M4.59,3.49a10.406,10.406,0,0,1-.31,2.45,1.635,1.635,0,0,0-.22.02A30.143,30.143,0,0,1,0,6.98,31.329,31.329,0,0,0,0,0,28.373,28.373,0,0,1,4.06,1.02a.833.833,0,0,0,.22.03A10.389,10.389,0,0,1,4.59,3.49Z" transform="translate(17.41 8.51)" fill="#094e81"/>
      <path id="Vector-8" data-name="Vector" d="M6.98,0A28.043,28.043,0,0,1,5.96,4.06a1.66,1.66,0,0,0-.03.22,10.322,10.322,0,0,1-2.44.31,10.406,10.406,0,0,1-2.45-.31,1.635,1.635,0,0,0-.02-.22A29.77,29.77,0,0,1,0,0,31.29,31.29,0,0,0,3.49.22,31.14,31.14,0,0,0,6.98,0Z" transform="translate(8.51 17.41)" fill="#094e81"/>
      <path id="Vector-9" data-name="Vector" d="M7.763,7.763a30.039,30.039,0,0,1-7.527,0,30.039,30.039,0,0,1,0-7.527,30.039,30.039,0,0,1,7.527,0A30.039,30.039,0,0,1,7.763,7.763Z" transform="translate(8 8)" fill="#094e81"/>
      <path id="Vector-10" data-name="Vector" d="M0,0H24V24H0Z" fill="none" opacity="0"/>
    </g>
  </g>
</svg>
